<?xml version="1.0" encoding="UTF-8" standalone="no"?>
<!-- Created with Inkscape (http://www.inkscape.org/) -->

<svg
   xmlns:dc="http://purl.org/dc/elements/1.1/"
   xmlns:cc="http://creativecommons.org/ns#"
   xmlns:rdf="http://www.w3.org/1999/02/22-rdf-syntax-ns#"
   xmlns:svg="http://www.w3.org/2000/svg"
   xmlns="http://www.w3.org/2000/svg"
   xmlns:xlink="http://www.w3.org/1999/xlink"
   xmlns:sodipodi="http://sodipodi.sourceforge.net/DTD/sodipodi-0.dtd"
   xmlns:inkscape="http://www.inkscape.org/namespaces/inkscape"
   width="744.09448819"
   height="1052.3622047"
   id="svg2"
   version="1.1"
   inkscape:version="0.48.4 r9939"
   sodipodi:docname="supermouse.svg">
  <defs
     id="defs4" />
  <sodipodi:namedview
     id="base"
     pagecolor="#ffffff"
     bordercolor="#666666"
     borderopacity="1.0"
     inkscape:pageopacity="0.0"
     inkscape:pageshadow="2"
     inkscape:zoom="0.35"
     inkscape:cx="-2237.641"
     inkscape:cy="592.9955"
     inkscape:document-units="px"
     inkscape:current-layer="layer1"
     showgrid="false"
     inkscape:window-width="1600"
     inkscape:window-height="837"
     inkscape:window-x="-8"
     inkscape:window-y="-8"
     inkscape:window-maximized="1" />
  <metadata
     id="metadata7">
    <rdf:RDF>
      <cc:Work
         rdf:about="">
        <dc:format>image/svg+xml</dc:format>
        <dc:type
           rdf:resource="http://purl.org/dc/dcmitype/StillImage" />
        <dc:title></dc:title>
      </cc:Work>
    </rdf:RDF>
  </metadata>
  <g
     inkscape:label="Layer 1"
     inkscape:groupmode="layer"
     id="layer1">
    <rect
       style="fill:#1c1f24;fill-rule:evenodd;stroke:#000000;stroke-width:0.998613px;stroke-linecap:butt;stroke-linejoin:miter;stroke-opacity:1"
       id="rect2987"
       width="899.0014"
       height="599.0014"
       x="-153.40373"
       y="-311.99564"
       inkscape:export-filename="C:\Users\sifilho\Documents\Projects\posueagames\saidesigner\supermouse\assets\universe_900-600.png"
       inkscape:export-xdpi="90"
       inkscape:export-ydpi="90" />
    <rect
       style="fill:#ff0000"
       id="rect3027"
       width="120"
       height="40"
       x="-414.48877"
       y="166.28896"
       inkscape:export-filename="C:\Users\sifilho\Documents\Projects\posueagames\saidesigner\supermouse\assets\player_120-40.png"
       inkscape:export-xdpi="90"
       inkscape:export-ydpi="90" />
    <g
       id="g3063"
       transform="translate(-298.93548,-655.91811)">
      <path
         inkscape:export-ydpi="90"
         inkscape:export-xdpi="90"
         inkscape:export-filename="C:\Users\sifilho\Documents\Projects\posueagames\saidesigner\supermouse\assets\asteroid_80-80.png"
         transform="matrix(0.44444444,0,0,0.58947371,-510.47619,306.23288)"
         d="m 274.28572,298.79074 c 0,37.47646 -40.29437,67.85714 -90,67.85714 -49.70563,0 -89.999999,-30.38068 -89.999999,-67.85714 0,-37.47646 40.294369,-67.85714 89.999999,-67.85714 49.70563,0 90,30.38068 90,67.85714 z"
         sodipodi:ry="67.85714"
         sodipodi:rx="90"
         sodipodi:cy="298.79074"
         sodipodi:cx="184.28572"
         id="path3025"
         style="fill:#d4aa00"
         sodipodi:type="arc" />
      <path
         transform="matrix(0.70612127,-0.70809093,0.70809093,0.70612127,-472.67888,-165.3435)"
         d="m -427.14287,467.36218 c 0,5.12836 -5.11675,9.28572 -11.42857,9.28572 -6.31183,0 -11.42857,-4.15736 -11.42857,-9.28572 0,-5.12836 5.11674,-9.28571 11.42857,-9.28571 6.31182,0 11.42857,4.15735 11.42857,9.28571 z"
         sodipodi:ry="9.2857141"
         sodipodi:rx="11.428572"
         sodipodi:cy="467.36218"
         sodipodi:cx="-438.57144"
         id="path3029"
         style="fill:#ffd42a"
         sodipodi:type="arc" />
      <path
         transform="matrix(0.70612127,-0.70809093,0.70809093,0.70612127,-435.89316,-179.27209)"
         d="m -427.14287,467.36218 c 0,5.12836 -5.11675,9.28572 -11.42857,9.28572 -6.31183,0 -11.42857,-4.15736 -11.42857,-9.28572 0,-5.12836 5.11674,-9.28571 11.42857,-9.28571 6.31182,0 11.42857,4.15735 11.42857,9.28571 z"
         sodipodi:ry="9.2857141"
         sodipodi:rx="11.428572"
         sodipodi:cy="467.36218"
         sodipodi:cx="-438.57144"
         id="path3029-7"
         style="fill:#ffcc00"
         sodipodi:type="arc" />
      <path
         transform="matrix(0.58499173,-0.56241335,0.58662351,0.56084892,-422.96212,-19.987247)"
         d="m -427.14287,467.36218 c 0,5.12836 -5.11675,9.28572 -11.42857,9.28572 -6.31183,0 -11.42857,-4.15736 -11.42857,-9.28572 0,-5.12836 5.11674,-9.28571 11.42857,-9.28571 6.31182,0 11.42857,4.15735 11.42857,9.28571 z"
         sodipodi:ry="9.2857141"
         sodipodi:rx="11.428572"
         sodipodi:cy="467.36218"
         sodipodi:cx="-438.57144"
         id="path3029-5"
         style="fill:#aa8800"
         sodipodi:type="arc" />
      <path
         transform="matrix(0.70612127,-0.70809093,0.70809093,0.70612127,-458.7503,-139.62923)"
         d="m -427.14287,467.36218 c 0,5.12836 -5.11675,9.28572 -11.42857,9.28572 -6.31183,0 -11.42857,-4.15736 -11.42857,-9.28572 0,-5.12836 5.11674,-9.28571 11.42857,-9.28571 6.31182,0 11.42857,4.15735 11.42857,9.28571 z"
         sodipodi:ry="9.2857141"
         sodipodi:rx="11.428572"
         sodipodi:cy="467.36218"
         sodipodi:cx="-438.57144"
         id="path3029-8"
         style="fill:#806600"
         sodipodi:type="arc" />
    </g>
    <path
       sodipodi:type="arc"
       style="fill:#ffffff"
       id="path2995"
       sodipodi:cx="-392.5"
       sodipodi:cy="189.86218"
       sodipodi:rx="11.071428"
       sodipodi:ry="8.9285717"
       d="m -381.42857,189.86218 a 11.071428,8.9285717 0 1 1 -22.14286,0 11.071428,8.9285717 0 1 1 22.14286,0 z"
       transform="translate(-4.2857143,-2.8571428)" />
    <g
       id="g3034"
       transform="translate(172.85714,-185)"
       inkscape:export-filename="C:\Users\sifilho\Documents\Projects\posueagames\saidesigner\supermouse\assets\cheese_40-40.png"
       inkscape:export-xdpi="90"
       inkscape:export-ydpi="90">
      <path
         inkscape:export-ydpi="90"
         inkscape:export-xdpi="90"
         inkscape:export-filename="C:\Users\sifilho\Documents\Projects\posueagames\saidesigner\supermouse\assets\asteroid_80-80.png"
         transform="matrix(0.44444444,0,0,0.58947371,-519.76191,166.2329)"
         d="m 274.28572,298.79074 c 0,37.47646 -40.29437,67.85714 -90,67.85714 -49.70563,0 -89.999999,-30.38068 -89.999999,-67.85714 0,-37.47646 40.294369,-67.85714 89.999999,-67.85714 49.70563,0 90,30.38068 90,67.85714 z"
         sodipodi:ry="67.85714"
         sodipodi:rx="90"
         sodipodi:cy="298.79074"
         sodipodi:cx="184.28572"
         id="path3025-7"
         style="fill:#000080"
         sodipodi:type="arc" />
      <path
         transform="matrix(0.70612127,-0.70809093,0.70809093,0.70612127,-481.9646,-305.34348)"
         d="m -427.14287,467.36218 c 0,5.12836 -5.11675,9.28572 -11.42857,9.28572 -6.31183,0 -11.42857,-4.15736 -11.42857,-9.28572 0,-5.12836 5.11674,-9.28571 11.42857,-9.28571 6.31182,0 11.42857,4.15735 11.42857,9.28571 z"
         sodipodi:ry="9.2857141"
         sodipodi:rx="11.428572"
         sodipodi:cy="467.36218"
         sodipodi:cx="-438.57144"
         id="path3029-4"
         style="fill:#ffd42a"
         sodipodi:type="arc" />
      <path
         transform="matrix(0.70612127,-0.70809093,0.70809093,0.70612127,-445.17888,-319.27207)"
         d="m -427.14287,467.36218 c 0,5.12836 -5.11675,9.28572 -11.42857,9.28572 -6.31183,0 -11.42857,-4.15736 -11.42857,-9.28572 0,-5.12836 5.11674,-9.28571 11.42857,-9.28571 6.31182,0 11.42857,4.15735 11.42857,9.28571 z"
         sodipodi:ry="9.2857141"
         sodipodi:rx="11.428572"
         sodipodi:cy="467.36218"
         sodipodi:cx="-438.57144"
         id="path3029-7-0"
         style="fill:#ffcc00"
         sodipodi:type="arc" />
      <path
         transform="matrix(0.58499173,-0.56241335,0.58662351,0.56084892,-432.24784,-159.98723)"
         d="m -427.14287,467.36218 c 0,5.12836 -5.11675,9.28572 -11.42857,9.28572 -6.31183,0 -11.42857,-4.15736 -11.42857,-9.28572 0,-5.12836 5.11674,-9.28571 11.42857,-9.28571 6.31182,0 11.42857,4.15735 11.42857,9.28571 z"
         sodipodi:ry="9.2857141"
         sodipodi:rx="11.428572"
         sodipodi:cy="467.36218"
         sodipodi:cx="-438.57144"
         id="path3029-5-9"
         style="fill:#aa8800"
         sodipodi:type="arc" />
      <path
         transform="matrix(0.70612127,-0.70809093,0.70809093,0.70612127,-468.03602,-279.62921)"
         d="m -427.14287,467.36218 c 0,5.12836 -5.11675,9.28572 -11.42857,9.28572 -6.31183,0 -11.42857,-4.15736 -11.42857,-9.28572 0,-5.12836 5.11674,-9.28571 11.42857,-9.28571 6.31182,0 11.42857,4.15735 11.42857,9.28571 z"
         sodipodi:ry="9.2857141"
         sodipodi:rx="11.428572"
         sodipodi:cy="467.36218"
         sodipodi:cx="-438.57144"
         id="path3029-8-4"
         style="fill:#806600"
         sodipodi:type="arc" />
    </g>
    <rect
       style="fill:#ff00ff"
       id="rect3043"
       width="185.46196"
       height="40"
       x="-1341.5397"
       y="-395.58646"
       inkscape:export-filename="C:\Users\sifilho\Documents\Projects\posueagames\saidesigner\docs\rat_40-40.png"
       inkscape:export-xdpi="90"
       inkscape:export-ydpi="90" />
    <image
       y="348.96704"
       x="-507.34717"
       id="image3033"
       xlink:href="file:///C:/Users/sifilho/Downloads/barra_nivel/barra_nivel/nivel3_396-54.png"
       height="54"
       width="396"
       inkscape:export-filename="C:\Users\sifilho\Documents\Projects\posueagames\saidesigner\supermouse\assets\health_396-54.png"
       inkscape:export-xdpi="90"
       inkscape:export-ydpi="90" />
    <image
       y="348.96704"
       x="-903.67877"
       id="image3044"
       xlink:href="file:///C:/Users/sifilho/Downloads/barra_nivel/barra_nivel/nivel4_396-54.png"
       height="54"
       width="396"
       inkscape:export-filename="C:\Users\sifilho\Documents\Projects\posueagames\saidesigner\supermouse\assets\health_396-54.png"
       inkscape:export-xdpi="90"
       inkscape:export-ydpi="90" />
    <image
       y="348.96704"
       x="-1300.0104"
       id="image3055"
       xlink:href="file:///C:/Users/sifilho/Downloads/barra_nivel/barra_nivel/nivel5_396-54.png"
       height="54"
       width="396"
       inkscape:export-filename="C:\Users\sifilho\Documents\Projects\posueagames\saidesigner\supermouse\assets\health_396-54.png"
       inkscape:export-xdpi="90"
       inkscape:export-ydpi="90" />
    <image
       y="348.96704"
       x="-1696.342"
       id="image3066"
       xlink:href="file:///C:/Users/sifilho/Downloads/barra_nivel/barra_nivel/nivel6_396-54.png"
       height="54"
       width="396"
       inkscape:export-filename="C:\Users\sifilho\Documents\Projects\posueagames\saidesigner\supermouse\assets\health_396-54.png"
       inkscape:export-xdpi="90"
       inkscape:export-ydpi="90" />
    <image
       y="348.96704"
       x="-2092.6736"
       id="image3077"
       xlink:href="file:///C:/Users/sifilho/Downloads/barra_nivel/barra_nivel/nivel7_396-54.png"
       height="54"
       width="396"
       inkscape:export-filename="C:\Users\sifilho\Documents\Projects\posueagames\saidesigner\supermouse\assets\health_396-54.png"
       inkscape:export-xdpi="90"
       inkscape:export-ydpi="90" />
    <image
       y="348.96704"
       x="-2489.0051"
       id="image3088"
       xlink:href="file:///C:/Users/sifilho/Downloads/barra_nivel/barra_nivel/nivel8_396-54.png"
       height="54"
       width="396"
       inkscape:export-filename="C:\Users\sifilho\Documents\Projects\posueagames\saidesigner\supermouse\assets\health_396-54.png"
       inkscape:export-xdpi="90"
       inkscape:export-ydpi="90" />
    <image
       y="348.96704"
       x="-2885.3369"
       id="image3099"
       xlink:href="file:///C:/Users/sifilho/Downloads/barra_nivel/barra_nivel/nivel9_396-54.png"
       height="54"
       width="396"
       inkscape:export-filename="C:\Users\sifilho\Documents\Projects\posueagames\saidesigner\supermouse\assets\health_396-54.png"
       inkscape:export-xdpi="90"
       inkscape:export-ydpi="90" />
    <image
       y="348.96704"
       x="-3281.6685"
       id="image3110"
       xlink:href="file:///C:/Users/sifilho/Downloads/barra_nivel/barra_nivel/nivel10_396-54.png"
       height="54"
       width="396"
       inkscape:export-filename="C:\Users\sifilho\Documents\Projects\posueagames\saidesigner\supermouse\assets\health_396-54.png"
       inkscape:export-xdpi="90"
       inkscape:export-ydpi="90" />
    <image
       y="348.96704"
       x="285.31604"
       id="image3132"
       xlink:href="file:///C:/Users/sifilho/Downloads/barra_nivel/barra_nivel/nivel1_396-54.png"
       height="54"
       width="396"
       inkscape:export-filename="C:\Users\sifilho\Documents\Projects\posueagames\saidesigner\supermouse\assets\health_396-54.png"
       inkscape:export-xdpi="90"
       inkscape:export-ydpi="90" />
    <image
       y="348.96704"
       x="-111.01556"
       id="image3143"
       xlink:href="file:///C:/Users/sifilho/Downloads/barra_nivel/barra_nivel/nivel2_396-54.png"
       height="54"
       width="396"
       inkscape:export-filename="C:\Users\sifilho\Documents\Projects\posueagames\saidesigner\supermouse\assets\health_396-54.png"
       inkscape:export-xdpi="90"
       inkscape:export-ydpi="90" />
    <image
       y="348.21933"
       x="-3678"
       id="image3154"
       xlink:href="file:///C:/Users/sifilho/Downloads/barra_nivel/barra_nivel/nivel11_396-54.png"
       height="54"
       width="396"
       inkscape:export-filename="C:\Users\sifilho\Documents\Projects\posueagames\saidesigner\supermouse\assets\health_396-54.png"
       inkscape:export-xdpi="90"
       inkscape:export-ydpi="90" />
  </g>
</svg>
